# AST/ASF file generated using VICON BodyLanguage
# -----------------------------------------------
:version 1.10
:name VICON
:units
  mass 1.0
  length 0.45
  angle deg
:documentation
   .ast/.asf automatically generated from VICON data using
   VICON BodyBuilder and BodyLanguage model FoxedUp or BRILLIANT.MOD
:root
   order TX TY TZ RX RY RZ
   axis XYZ
   position 0 0 0  
   orientation 0 0 0 
:bonedata
  begin
     id 1 
     name lhipjoint
     direction 0.606768 -0.715223 0.346827 
     length 2.41543 
     axis 0 0 0  XYZ
  end
  begin
     id 2 
     name lfemur
     direction 0.34202 -0.939693 0  
     length 7.2778  
     axis 0 0 20  XYZ
    dof rx ry rz
    limits (-160.0 20.0)
           (-70.0 70.0)
           (-60.0 70.0)
  end
  begin
     id 3 
     name ltibia
     direction 0.34202 -0.939693 0   
     length 7.61811   
     axis 0 0 20   XYZ
    dof rx
    limits (-10.0 170.0)
  end
  begin
     id 4 
     name lfoot
     direction 0.0823924 -0.226371 0.97055   
     length 2.33618   
     axis -90 7.62852e-016 20   XYZ
    dof rx rz
    limits (-45.0 90.0)
           (-70.0 20.0)
  end
  begin
     id 5 
     name ltoes
     direction 1.53554e-011 -4.21934e-011 1   
     length 1.17015   
     axis -90 7.62852e-016 20   XYZ
    dof rx
    limits (-90.0 20.0)
  end
  begin
     id 6 
     name rhipjoint
     direction -0.6077 -0.714582 0.346516   
     length 2.4176  
     axis 0 0 0  XYZ 
  end
  begin
     id 7 
     name rfemur
     direction -0.34202 -0.939693 0   
     length 7.28127   
     axis 0 0 -20   XYZ
    dof rx ry rz
    limits (-160.0 20.0)
           (-70.0 70.0)
           (-70.0 60.0)
  end
  begin
     id 8 
     name rtibia
     direction -0.34202 -0.939693 0   
     length 7.77648   
     axis 0 0 -20   XYZ
    dof rx
    limits (-10.0 170.0)
 end
 begin
     id 9 
     name rfoot
     direction -0.0809463 -0.222398 0.97159   
     length 2.37533  
     axis -90 -7.62852e-016 -20   XYZ
    dof rx rz
    limits (-45.0 90.0)
           (-20.0 70.0)
  end
  begin
     id 10 
     name rtoes
     direction -1.53568e-011 -4.21714e-011 1   
     length 1.18972   
     axis -90 -7.62852e-016 -20   XYZ
    dof rx
    limits (-90.0 20.0)
  end
  begin
     id 11 
     name lowerback
     direction 0.010968 0.991932 -0.126297   
     length 2.21698   
     axis 0 0 0   XYZ
    dof rx ry rz
    limits (-20.0 45.0)
           (-30.0 30.0)
           (-30.0 30.0)
  end
  begin
     id 12 
     name upperback
     direction 0.0167007 0.997503 -0.0686276   
     length 2.22371   
     axis 0 0 0   XYZ
    dof rx ry rz
    limits (-20.0 45.0)
           (-30.0 30.0)
           (-30.0 30.0)
  end
  begin
     id 13 
     name thorax
     direction 0.0111721 0.999885 -0.0102878   
     length 2.25242   
     axis 0 0 0   XYZ
    dof rx ry rz
    limits (-20.0 45.0)
           (-30.0 30.0)
           (-30.0 30.0)
  end
  begin
     id 14 
     name lowerneck
     direction -0.0120265 0.990428 0.137508   
     length 1.57674   
     axis 0 0 0   XYZ
    dof rx ry rz
    limits (-20.0 45.0)
           (-30.0 30.0)
           (-30.0 30.0)
  end
  begin
     id 15 
     name upperneck
     direction 0.0175669 0.998907 0.0433089   
     length 1.5618   
     axis 0 0 0   XYZ
    dof rx ry rz
    limits (-20.0 45.0)
           (-30.0 30.0)
           (-30.0 30.0)
  end
  begin
     id 16
     name head
     direction 0.00754609 0.99997 0.00185367  
     length 1.60579  
     axis 0 0 0   XYZ
    dof rx ry rz
    limits (-20.0 45.0)
           (-30.0 30.0)
           (-30.0 30.0)
  end
  begin
     id 17 
     name lclavicle
     direction 0.885866 0.429166 -0.176231  
     length 3.44967  
     axis 0 0 0   XYZ
    dof ry rz
    limits (-20.0 10.0)
           (0.0 20.0)
  end
  begin
     id 18 
     name lhumerus
     direction 1 -4.48973e-011 -1.90255e-027   
     length 5.20607   
     axis 180 -30 -90   XYZ
    dof rx ry rz
    limits (-60.0 90.0)
           (-90.0 90.0)
           (-90.0 90.0)
  end
  begin
     id 19
     name lradius
     direction 1 -4.48956e-011 9.87925e-027   
     length 3.39961   
     axis 180 -30 -90   XYZ
    dof rx
    limits (-10.0 170.0)
  end
  begin
     id 20
     name lwrist
     direction 1 -4.48985e-011 1.73247e-026   
     length 1.6998   
     axis -9.60847e-015 90 90   XYZ
    dof ry
    limits (-180.0 0.0)
 end
  begin
     id 21 
     name lhand
     direction 1 -4.48798e-011 3.46119e-026   
     length 0.519693   
     axis -2.21073e-014 90 90   XYZ
    dof rx rz
    limits (-90.0 90.0)
           (-45.0 45.0)
  end
  begin
     id 22 
     name lfingers
     direction 1 -4.48938e-011 6.92797e-026   
     length 0.41899   
     axis -4.42155e-014 90 90   XYZ
    dof rx
    limits (0.0 90.0)
  end
  begin
     id 23
     name lthumb
     direction 0.707107 -6.34952e-011 0.707107   
     length 0.601588   
     axis -90 45 6.0103e-014   XYZ
    dof rx rz
    limits (-45.0 45.0)
           (-45.0 45.0)
  end
  begin
     id 24 
     name rclavicle
     direction -0.866736 0.456792 -0.200276   
     length 3.45032  
     axis 0 0 0   XYZ 
    dof ry rz
    limits (-10.0 20.0)
           (-20.0 0.0)
  end
  begin
     id 25 
     name rhumerus
     direction -1 -4.4897e-011 8.65094e-028  
     length 5.32214   
     axis 180 30 90   XYZ
    dof rx ry rz
    limits (-90.0 60.0)
           (-90.0 90.0)
           (-90.0 90.0)
  end
  begin
     id 26 
     name rradius
     direction -1 -4.48987e-011 1.08427e-026   
     length 3.51208   
     axis 180 30 90   XYZ
    dof rx
    limits (-10.0 170.0)
  end
  begin
     id 27 
     name rwrist
     direction -1 -4.48961e-011 1.73222e-026   
     length 1.75604   
     axis -9.60847e-015 -90 -90   XYZ
    dof ry
    limits (-180.0 0.0)
  end
  begin
     id 28
     name rhand
     direction -1 -4.48895e-011 3.46314e-026   
     length 0.586681   
     axis -2.21073e-014 -90 -90   XYZ
    dof rx rz
    limits (-90.0 90.0)
           (-45.0 45.0)
  end
  begin
     id 29
     name rfingers
     direction -1 -4.48968e-011 6.92916e-026   
     length 0.472997   
     axis -4.42155e-014 -90 -90   XYZ
    dof rx
    limits (0.0 90.0)
  end
  begin
     id 30
     name rthumb
     direction -0.707107 -6.34848e-011 0.707107   
     length 0.679133   
     axis -90 -45 -6.0103e-014   XYZ
    dof rx rz
    limits (-45.0 45.0)
           (-45.0 45.0)
  end
:hierarchy
  begin
    root lhipjoint rhipjoint lowerback
    lhipjoint lfemur
    lfemur ltibia
    ltibia lfoot
    lfoot ltoes
    rhipjoint rfemur
    rfemur rtibia
    rtibia rfoot
    rfoot rtoes
    lowerback upperback
    upperback thorax
    thorax lowerneck lclavicle rclavicle
    lowerneck upperneck
    upperneck head
    lclavicle lhumerus
    lhumerus lradius
    lradius lwrist
    lwrist lhand lthumb
    lhand lfingers
    rclavicle rhumerus
    rhumerus rradius
    rradius rwrist
    rwrist rhand rthumb
    rhand rfingers
  end

#!OML:ASF H:\Dans Jumps\Project 1\Capture day 1\Session 1\subject.ASF
:FULLY-SPECIFIED
:DEGREES
1
root 0.36249 17.5633 -13.8545 5.81135 0.36446 -1.79036
lowerback -4.77582 -0.826771 0.804272
upperback 1.54942 -1.22392 1.66097
thorax 4.29939 -0.609568 1.1615
lowerneck -13.3665 -0.459708 -2.76773
upperneck 6.76847 -0.287505 1.64031
head 4.19735 -0.118802 0.930924
rclavicle -1.16041e-014 -1.07344e-014
rhumerus -25.8929 -21.8983 -79.127
rradius 24.4115
rwrist 34.2628
rhand -16.8822 -27.1578
rfingers 7.12502
rthumb 9.34899 -56.9305
lclavicle -1.16041e-014 -1.07344e-014
lhumerus -22.7784 -0.581192 89.5605
lradius 18.9214
lwrist 1.87879
lhand -24.3743 -2.99414
lfingers 7.12502
lthumb 2.11583 26.9751
rfemur -11.0353 -3.98048 20.6378
rtibia 18.9493
rfoot -13.0838 -1.38026
rtoes 4.40874
lfemur -9.33605 8.15441 -16.9282
ltibia 15.4613
lfoot -10.3221 4.06385
ltoes -8.40595
2
root 0.362895 17.5631 -13.8538 5.80547 0.380424 -1.75867
lowerback -4.78669 -0.825754 0.777259
upperback 1.54876 -1.22076 1.65487
thorax 4.30523 -0.608627 1.17047
lowerneck -13.3505 -0.445251 -2.75755
upperneck 6.70985 -0.26899 1.62948
head 4.17624 -0.10988 0.927194
rclavicle 9.7156e-015 -7.15625e-015
rhumerus -25.907 -21.9251 -79.0907
rradius 24.384
rwrist 34.3207
rhand -16.9699 -27.1546
rfingers 7.12502
rthumb 9.26442 -56.931
lclavicle 9.7156e-015 -7.15625e-015
lhumerus -22.8018 -0.467085 89.5071
lradius 18.835
lwrist 1.74555
lhand -24.3443 -3.10166
lfingers 7.12502
lthumb 2.14482 26.8673
rfemur -11.0306 -3.97148 20.6003
rtibia 18.9659
rfoot -13.0806 -1.39494
rtoes 4.40616
lfemur -9.32804 8.19064 -16.9639
ltibia 15.454
lfoot -10.3403 4.0133
ltoes -8.37976
3
root 0.364047 17.5626 -13.8531 5.79402 0.396307 -1.77219
lowerback -4.78743 -0.827069 0.802065
upperback 1.54723 -1.22447 1.66383
thorax 4.30382 -0.609926 1.1655
lowerneck -13.3745 -0.43522 -2.75846
upperneck 6.68646 -0.253381 1.61713
head 4.17253 -0.10277 0.92464
rclavicle 4.89507e-015 -1.2921e-014
rhumerus -25.8988 -22.0161 -79.0333
rradius 24.3345
rwrist 34.3805
rhand -16.9426 -27.1003
rfingers 7.12502
rthumb 9.29077 -56.8755
lclavicle 4.89507e-015 -1.2921e-014
lhumerus -22.8297 -0.339192 89.454
lradius 18.7811
lwrist 1.63017
lhand -24.344 -3.20022
lfingers 7.12502
lthumb 2.14514 26.7687
rfemur -11.0212 -3.95667 20.6108
rtibia 18.9782
rfoot -13.0946 -1.41972
rtoes 4.36484
lfemur -9.31358 8.20342 -16.9517
ltibia 15.4455
lfoot -10.3442 3.99287
ltoes -8.42663
4
root 0.365586 17.5627 -13.8533 5.79028 0.404085 -1.75558
lowerback -4.78946 -0.823559 0.803504
upperback 1.55023 -1.21985 1.66074
thorax 4.30791 -0.607542 1.16185
lowerneck -13.411 -0.434566 -2.76966
upperneck 6.65269 -0.2495 1.61909
head 4.16791 -0.10077 0.927283
rclavicle 1.25234e-014 -2.127e-014
rhumerus -25.8809 -22.0511 -79.0035
rradius 24.313
rwrist 34.4094
rhand -16.9733 -27.1123
rfingers 7.12502
rthumb 9.2611 -56.8889
lclavicle 1.25234e-014 -2.127e-014
lhumerus -22.8413 -0.299684 89.4287
lradius 18.7449
lwrist 1.64604
lhand -24.3195 -3.12524
lfingers 7.12502
lthumb 2.16879 26.8435
rfemur -11.0223 -3.96715 20.5858
rtibia 18.9922
rfoot -13.1017 -1.41909
rtoes 4.40084
lfemur -9.30619 8.20202 -16.9752
ltibia 15.4353
lfoot -10.3445 3.98275
ltoes -8.40725
5
root 0.366914 17.5626 -13.853 5.78462 0.416186 -1.7439
lowerback -4.7937 -0.82252 0.806239
upperback 1.55111 -1.2187 1.66009
thorax 4.31114 -0.606886 1.15968
lowerneck -13.4283 -0.43064 -2.77679
upperneck 6.615 -0.242074 1.61701
head 4.15892 -0.0972078 0.928276
rclavicle 5.04416e-015 0
rhumerus -25.8717 -22.0939 -78.9672
rradius 24.2871
rwrist 34.4505
rhand -16.9957 -27.0972
rfingers 7.12502
rthumb 9.23949 -56.8747
lclavicle 5.04416e-015 0
lhumerus -22.8629 -0.229261 89.3939
lradius 18.7006
lwrist 1.60671
lhand -24.3117 -3.12912
lfingers 7.12502
lthumb 2.17633 26.8395
rfemur -11.0179 -3.96713 20.5677
rtibia 19.0013
rfoot -13.1065 -1.43188
rtoes 4.38096
lfemur -9.29852 8.21339 -16.9923
ltibia 15.4288
lfoot -10.35 3.96116
ltoes -8.41667
6
root 0.368335 17.5625 -13.8529 5.7785 0.427693 -1.73329
lowerback -4.79708 -0.821191 0.810251
upperback 1.55303 -1.21728 1.65983
thorax 4.31493 -0.606061 1.15722
lowerneck -13.4407 -0.42968 -2.7881
upperneck 6.57323 -0.238222 1.61732
head 4.14795 -0.0953737 0.930403
rclavicle 2.26118e-015 1.25234e-014
rhumerus -25.8605 -22.1279 -78.9342
rradius 24.2664
rwrist 34.486
rhand -17.014 -27.0828
rfingers 7.12502
rthumb 9.22185 -56.8612
lclavicle 2.26118e-015 1.25234e-014
lhumerus -22.8844 -0.157758 89.3616
lradius 18.6635
lwrist 1.56577
lhand -24.3091 -3.12814
lfingers 7.12502
lthumb 2.17879 26.8405
rfemur -11.0151 -3.96449 20.5506
rtibia 19.014
rfoot -13.1131 -1.44782
rtoes 4.35813
lfemur -9.28645 8.22191 -17.0084
ltibia 15.4144
lfoot -10.3496 3.94061
ltoes -8.42325
7
root 0.369794 17.5624 -13.8526 5.77205 0.438625 -1.72276
lowerback -4.79813 -0.819593 0.81494
upperback 1.55359 -1.21543 1.65877
thorax 4.31597 -0.605 1.15363
lowerneck -13.4502 -0.439242 -2.81209
upperneck 6.52958 -0.246826 1.62349
head 4.13626 -0.0996637 0.93546
rclavicle 9.21864e-015 1.88845e-014
rhumerus -25.8581 -22.1491 -78.9045
rradius 24.2517
rwrist 34.5234
rhand -17.0543 -27.0354
rfingers 7.12502
rthumb 9.18295 -56.8155
lclavicle 9.21864e-015 1.88845e-014
lhumerus -22.9133 -0.090632 89.3303
lradius 18.6355
lwrist 1.52539
lhand -24.3092 -3.22689
lfingers 7.12502
lthumb 2.17874 26.7417
rfemur -11.0082 -3.95845 20.5335
rtibia 19.0212
rfoot -13.1174 -1.46678
rtoes 4.33836
lfemur -9.27674 8.23234 -17.024
ltibia 15.4071
lfoot -10.3542 3.91746
ltoes -8.41781
8
root 0.371317 17.5623 -13.8524 5.76533 0.450886 -1.71581
lowerback -4.79975 -0.818097 0.821118
upperback 1.55454 -1.21394 1.66008
thorax 4.31775 -0.604106 1.15163
lowerneck -13.4545 -0.446131 -2.8278
upperneck 6.48082 -0.252429 1.61925
head 4.12205 -0.102866 0.936178
rclavicle 1.46604e-015 -2.98177e-015
rhumerus -25.8564 -22.1418 -78.8813
rradius 24.2503
rwrist 34.5322
rhand -17.0764 -27.0071
rfingers 7.12502
rthumb 9.1616 -56.7881
lclavicle 1.46604e-015 -2.98177e-015
lhumerus -22.9427 -0.0216836 89.3024
lradius 18.6127
lwrist 1.47478
lhand -24.3079 -3.31349
lfingers 7.12502
lthumb 2.18003 26.6551
rfemur -10.9992 -3.95083 20.5204
rtibia 19.0246
rfoot -13.1201 -1.4884
rtoes 4.31881
lfemur -9.26934 8.24093 -17.0357
ltibia 15.404
lfoot -10.3603 3.8941
ltoes -8.40708
9
root 0.372881 17.5621 -13.8524 5.758 0.461242 -1.71356
lowerback -4.8007 -0.815741 0.8292
upperback 1.55707 -1.21155 1.66411
thorax 4.3208 -0.602757 1.15143
lowerneck -13.4564 -0.452159 -2.83865
upperneck 6.42512 -0.257048 1.6075
head 4.10529 -0.105873 0.933855
rclavicle 8.10048e-015 7.55382e-015
rhumerus -25.8518 -22.1128 -78.8646
rradius 24.2598
rwrist 34.5205
rhand -17.0823 -26.9966
rfingers 7.12502
rthumb 9.15596 -56.7778
lclavicle 8.10048e-015 7.55382e-015
lhumerus -22.9673 0.0483071 89.2781
lradius 18.5913
lwrist 1.41755
lhand -24.3097 -3.40968
lfingers 7.12502
lthumb 2.17823 26.559
rfemur -10.9885 -3.93864 20.5123
rtibia 19.0245
rfoot -13.1207 -1.51141
rtoes 4.3029
lfemur -9.26435 8.24743 -17.0422
ltibia 15.4055
lfoot -10.367 3.87352
ltoes -8.38792
10
root 0.374573 17.5619 -13.8524 5.75003 0.470527 -1.71339
lowerback -4.80132 -0.812936 0.837472
upperback 1.5601 -1.20867 1.67012
thorax 4.32423 -0.601184 1.15323
lowerneck -13.4549 -0.453214 -2.8377
upperneck 6.36335 -0.255914 1.58254
head 4.08594 -0.106494 0.925969
rclavicle 8.4235e-015 -1.86858e-014
rhumerus -25.845 -22.0621 -78.853
rradius 24.2795
rwrist 34.4884
rhand -17.068 -27.0091
rfingers 7.12502
rthumb 9.16968 -56.7897
lclavicle 8.4235e-015 -1.86858e-014
lhumerus -22.9917 0.107666 89.2612
lradius 18.5763
lwrist 1.36607
lhand -24.3049 -3.44075
lfingers 7.12502
lthumb 2.1829 26.5278
rfemur -10.9764 -3.92664 20.5056
rtibia 19.0221
rfoot -13.1205 -1.53228
rtoes 4.29776
lfemur -9.26072 8.25242 -17.0469
ltibia 15.411
lfoot -10.375 3.85448
ltoes -8.36356
